<?xml version="1.0" encoding="utf-8"?>
<!-- Generator: Adobe Illustrator 22.1.0, SVG Export Plug-In . SVG Version: 6.00 Build 0)  -->
<svg version="1.1" id="Layer_1" xmlns="http://www.w3.org/2000/svg" xmlns:xlink="http://www.w3.org/1999/xlink" x="0px" y="0px"
	 viewBox="0 0 64.7 39" style="enable-background:new 0 0 64.7 39;" xml:space="preserve">
<style type="text/css">
	.st0{fill:#040000;}
</style>
<g id="rocket_1_">
	<polygon class="st0" points="63,18.8 59.6,6.1 57,9.1 59.2,17.6 	"/>
	<path class="st0" d="M18.2,24.3c1.4,5.3,9.7,7.6,18.6,5.2c1.3-0.3,2.5-0.8,3.7-1.3l0,0.1l8.2-3.7l4.5,3.9l11.6-3.1l-6.2-5.1l0,0
		L55.1,7.6l0,0l0,0L57.9,0L46.4,3.1l-2,5.6l-8.9,0.9l0,0.1c-1.2,0.2-2.5,0.4-3.8,0.7C22.8,12.8,16.8,19,18.2,24.3z M42.5,14.4
		c1.8-0.5,3.6,0.6,4,2.3c0.5,1.8-0.6,3.6-2.3,4c-1.8,0.5-3.6-0.6-4-2.3C39.7,16.6,40.8,14.8,42.5,14.4z M31.5,17.3
		c1.8-0.5,3.6,0.6,4,2.3c0.5,1.8-0.6,3.6-2.3,4c-1.8,0.5-3.6-0.6-4-2.3C28.7,19.6,29.7,17.8,31.5,17.3z"/>
</g>
<g id="wireless_2_1_">
	<path class="st0" d="M1.4,27.2L0,34.9L7.8,36c0.3-1.9-0.2-4-1.4-5.7C5.1,28.6,3.3,27.6,1.4,27.2z M2.1,33.4l0.7-3.9
		c0.8,0.4,1.6,1.1,2.1,1.8C5.5,32.1,5.8,33,6,33.9L2.1,33.4z"/>
	<path class="st0" d="M3.4,16.6l-1.1,6.2c3.1,0.6,5.9,2.4,7.7,5c1.9,2.6,2.7,5.8,2.2,8.9l6.2,0.9c0.6-4.6-0.5-9.4-3.4-13.5
		S7.9,17.4,3.4,16.6z M14.1,35.1c0-3-0.9-6-2.7-8.4c-1.8-2.5-4.3-4.3-7.1-5.2l0.5-2.7c3.6,1.1,6.7,3.3,8.9,6.3
		c2.2,3.1,3.3,6.7,3.2,10.4L14.1,35.1z"/>
	<path class="st0" d="M23.9,17.7C19.3,11.2,12.6,7.2,5.4,5.8L4.2,12c2.8,0.5,5.4,1.5,7.8,3c2.7,1.6,5,3.8,6.8,6.3
		c1.8,2.6,3.1,5.4,3.8,8.5c0.6,2.7,0.7,5.6,0.4,8.3l6.2,0.9C30.2,31.7,28.6,24.1,23.9,17.7z M25,36.6c0.2-2.4,0-4.8-0.6-7.2
		c-0.7-3.3-2.1-6.3-4.1-9.1c-2-2.8-4.4-5-7.3-6.8c-2.1-1.3-4.3-2.2-6.7-2.8L6.8,8c6.3,1.6,11.9,5.4,15.7,10.7
		c3.8,5.3,5.7,11.8,5.2,18.3L25,36.6z"/>
</g>
</svg>
