<svg version="1.1" id="Layer_1" x="0px" y="0px" width="66.253px" height="40.686px" viewBox="0 0 66.253 40.686" enable-background="new 0 0 158.253 40.686" xml:space="preserve">


<g id="e6481b79-b281-4903-beb8-ac84799ebb53" data-name="rocket"><g id="b934a163-cb80-4d6a-a52f-8edcbee2b7cb" data-name="rocket"><polygon points="64.58 19.31 61.08 6.27 58.4 9.32 60.73 18.01 64.58 19.31" style="fill:#68778D"/><path d="M18.64,24.91c1.44,5.4,10,7.81,19.07,5.37A28.15,28.15,0,0,0,41.47,29l0,.06,8.43-3.75,4.61,4,11.86-3.18L60,20.81h0l-3.49-13h0L59.39,0,47.54,3.18l-2,5.75-9.18,1,0,.07a26.67,26.67,0,0,0-3.91.76C23.38,13.16,17.19,19.51,18.64,24.91Zm25-10.19a3.37,3.37,0,1,1-2.39,4.14A3.38,3.38,0,0,1,43.6,14.72Zm-11.35,3a3.38,3.38,0,1,1-2.38,4.14A3.38,3.38,0,0,1,32.25,17.76Z" style="fill:#68778D"/></g><g id="b159e30c-e035-40ac-ab8f-741c7bbdda1c" data-name="wireless"><path d="M1.46,27.88,0,35.78,8,36.9a8,8,0,0,0-1.43-5.81A8,8,0,0,0,1.46,27.88Zm.67,6.37.74-4A6.12,6.12,0,0,1,5,32.15a6.16,6.16,0,0,1,1.1,2.66Z" style="fill:#68778D"/><path d="M3.49,17,2.32,23.31a12.7,12.7,0,0,1,7.94,5.09,12.72,12.72,0,0,1,2.3,9.15l6.37.89a19.16,19.16,0,0,0-3.46-13.79A19.12,19.12,0,0,0,3.49,17Zm11,19a14.59,14.59,0,0,0-2.75-8.65A14.54,14.54,0,0,0,4.41,22l.51-2.77A17.27,17.27,0,0,1,14,25.71a17.37,17.37,0,0,1,3.28,10.67Z" style="fill:#68778D"/><path d="M24.55,18.12A30.41,30.41,0,0,0,5.53,6L4.36,12.32a23.66,23.66,0,0,1,8,3.08,23.66,23.66,0,0,1,7,6.47,23.87,23.87,0,0,1,3.92,8.67,23.75,23.75,0,0,1,.38,8.57L30,40A30.36,30.36,0,0,0,24.55,18.12Zm1.06,19.43A25.31,25.31,0,0,0,25,30.14a25.5,25.5,0,0,0-4.22-9.33,25.69,25.69,0,0,0-7.5-7,26,26,0,0,0-6.84-2.91L7,8.18a28.49,28.49,0,0,1,16.1,11,28.53,28.53,0,0,1,5.32,18.76Z" style="fill:#68778D"/></g></g></svg>